<svg xmlns="http://www.w3.org/2000/svg" viewBox="0 0 1500 500" width="1500" height="500">
  <defs>
    <linearGradient id="bg" x1="0" y1="0" x2="1500" y2="500" gradientUnits="userSpaceOnUse">
      <stop offset="0" stop-color="#0A0C1F"/>
      <stop offset="0.5" stop-color="#0B1A2E"/>
      <stop offset="1" stop-color="#062426"/>
    </linearGradient>
    <radialGradient id="teal">
      <stop offset="0" stop-color="#2FE0C0" stop-opacity="0.42"/>
      <stop offset="1" stop-color="#2FE0C0" stop-opacity="0"/>
    </radialGradient>
    <radialGradient id="violet">
      <stop offset="0" stop-color="#8A6CFF" stop-opacity="0.30"/>
      <stop offset="1" stop-color="#8A6CFF" stop-opacity="0"/>
    </radialGradient>
    <linearGradient id="blade" x1="0" y1="9" x2="0" y2="34" gradientUnits="userSpaceOnUse">
      <stop offset="0" stop-color="#FFF3E6"/>
      <stop offset="0.5" stop-color="#C9A6FF"/>
      <stop offset="1" stop-color="#5CF0D6"/>
    </linearGradient>
    <filter id="glow" filterUnits="userSpaceOnUse" x="0" y="4" width="38" height="36">
      <feGaussianBlur stdDeviation="1.1" result="b"/>
      <feMerge><feMergeNode in="b"/><feMergeNode in="b"/><feMergeNode in="SourceGraphic"/></feMerge>
    </filter>
  </defs>
  <rect width="1500" height="500" fill="url(#bg)"/>
  <circle cx="180" cy="40" r="620" fill="url(#violet)"/>
  <circle cx="1300" cy="520" r="560" fill="url(#teal)"/>
  <circle cx="663" cy="485" r="1" fill="#E8ECF8" opacity="0.5"/><circle cx="1333" cy="24" r="0.8" fill="#E8ECF8" opacity="0.7"/><circle cx="192" cy="187" r="0.8" fill="#E8ECF8" opacity="0.7"/><circle cx="439" cy="19" r="0.8" fill="#E8ECF8" opacity="0.5"/><circle cx="856" cy="35" r="1" fill="#E8ECF8" opacity="0.35"/><circle cx="1128" cy="217" r="0.8" fill="#E8ECF8" opacity="0.7"/><circle cx="253" cy="485" r="1" fill="#E8ECF8" opacity="0.7"/><circle cx="1284" cy="298" r="0.8" fill="#E8ECF8" opacity="0.7"/><circle cx="1199" cy="203" r="0.8" fill="#E8ECF8" opacity="0.35"/><circle cx="95" cy="285" r="1" fill="#E8ECF8" opacity="0.5"/><circle cx="858" cy="73" r="0.8" fill="#E8ECF8" opacity="0.7"/><circle cx="631" cy="286" r="1" fill="#E8ECF8" opacity="0.35"/><circle cx="1191" cy="292" r="1" fill="#E8ECF8" opacity="0.5"/><circle cx="199" cy="280" r="0.8" fill="#E8ECF8" opacity="0.7"/><circle cx="122" cy="316" r="1" fill="#E8ECF8" opacity="0.5"/><circle cx="1393" cy="272" r="1.6" fill="#E8ECF8" opacity="0.5"/><circle cx="953" cy="299" r="1.6" fill="#E8ECF8" opacity="0.5"/><circle cx="613" cy="127" r="1" fill="#E8ECF8" opacity="0.7"/><circle cx="499" cy="41" r="1.2" fill="#E8ECF8" opacity="0.7"/><circle cx="1013" cy="448" r="1.2" fill="#E8ECF8" opacity="0.7"/><circle cx="919" cy="147" r="0.8" fill="#E8ECF8" opacity="0.35"/><circle cx="1048" cy="214" r="1" fill="#E8ECF8" opacity="0.5"/><circle cx="311" cy="477" r="1.6" fill="#E8ECF8" opacity="0.5"/><circle cx="80" cy="492" r="0.8" fill="#E8ECF8" opacity="0.7"/><circle cx="1173" cy="404" r="1.2" fill="#E8ECF8" opacity="0.5"/><circle cx="1423" cy="179" r="1.6" fill="#E8ECF8" opacity="0.7"/><circle cx="934" cy="35" r="0.8" fill="#E8ECF8" opacity="0.5"/><circle cx="970" cy="356" r="0.8" fill="#E8ECF8" opacity="0.35"/><circle cx="1497" cy="359" r="1.2" fill="#E8ECF8" opacity="0.7"/><circle cx="1183" cy="348" r="1.6" fill="#E8ECF8" opacity="0.5"/><circle cx="1467" cy="197" r="1.2" fill="#E8ECF8" opacity="0.35"/><circle cx="945" cy="181" r="1" fill="#E8ECF8" opacity="0.7"/><circle cx="239" cy="252" r="0.8" fill="#E8ECF8" opacity="0.35"/><circle cx="588" cy="66" r="1" fill="#E8ECF8" opacity="0.5"/><circle cx="800" cy="469" r="1.6" fill="#E8ECF8" opacity="0.35"/><circle cx="340" cy="229" r="1.6" fill="#E8ECF8" opacity="0.7"/><circle cx="569" cy="452" r="1" fill="#E8ECF8" opacity="0.5"/><circle cx="1126" cy="142" r="1.6" fill="#E8ECF8" opacity="0.5"/><circle cx="1398" cy="452" r="1.6" fill="#E8ECF8" opacity="0.35"/><circle cx="309" cy="42" r="1" fill="#E8ECF8" opacity="0.35"/><circle cx="475" cy="337" r="1" fill="#E8ECF8" opacity="0.35"/><circle cx="993" cy="425" r="1" fill="#E8ECF8" opacity="0.5"/><circle cx="577" cy="2" r="1" fill="#E8ECF8" opacity="0.5"/><circle cx="1094" cy="189" r="1.2" fill="#E8ECF8" opacity="0.35"/><circle cx="1414" cy="439" r="0.8" fill="#E8ECF8" opacity="0.5"/><circle cx="1393" cy="408" r="1.6" fill="#E8ECF8" opacity="0.5"/><circle cx="817" cy="201" r="0.8" fill="#E8ECF8" opacity="0.5"/><circle cx="1299" cy="205" r="0.8" fill="#E8ECF8" opacity="0.35"/><circle cx="137" cy="106" r="1.6" fill="#E8ECF8" opacity="0.35"/><circle cx="225" cy="174" r="0.8" fill="#E8ECF8" opacity="0.35"/><circle cx="0" cy="290" r="1" fill="#E8ECF8" opacity="0.7"/><circle cx="207" cy="485" r="1.2" fill="#E8ECF8" opacity="0.7"/><circle cx="52" cy="36" r="1" fill="#E8ECF8" opacity="0.7"/><circle cx="770" cy="76" r="1.2" fill="#E8ECF8" opacity="0.5"/><circle cx="1233" cy="186" r="1.6" fill="#E8ECF8" opacity="0.35"/><circle cx="236" cy="434" r="1.6" fill="#E8ECF8" opacity="0.5"/><circle cx="983" cy="247" r="1.2" fill="#E8ECF8" opacity="0.35"/><circle cx="295" cy="52" r="1.2" fill="#E8ECF8" opacity="0.7"/><circle cx="542" cy="245" r="1" fill="#E8ECF8" opacity="0.7"/><circle cx="47" cy="105" r="1.2" fill="#E8ECF8" opacity="0.35"/><circle cx="1413" cy="278" r="0.8" fill="#E8ECF8" opacity="0.7"/><circle cx="610" cy="500" r="0.8" fill="#E8ECF8" opacity="0.7"/><circle cx="534" cy="265" r="1.2" fill="#E8ECF8" opacity="0.35"/><circle cx="728" cy="395" r="1" fill="#E8ECF8" opacity="0.7"/><circle cx="1109" cy="398" r="1.2" fill="#E8ECF8" opacity="0.7"/><circle cx="456" cy="313" r="1" fill="#E8ECF8" opacity="0.35"/><circle cx="820" cy="378" r="1" fill="#E8ECF8" opacity="0.35"/><circle cx="1060" cy="252" r="1.2" fill="#E8ECF8" opacity="0.7"/><circle cx="59" cy="14" r="1.2" fill="#E8ECF8" opacity="0.5"/><circle cx="530" cy="99" r="1.2" fill="#E8ECF8" opacity="0.5"/>
  <!-- Mark: glowing blades on the right -->
  <g filter="url(#glow)" transform="translate(1010 88) scale(13) translate(-4 -9)">
    <path d="M4 34 L11 9 L16 9 L9 34 Z" fill="url(#blade)"/>
    <path d="M14 34 L20 16 L25 16 L19 34 Z" fill="url(#blade)"/>
    <path d="M23 34 L29 22 L34 22 L28 34 Z" fill="url(#blade)"/>
  </g>
  <!-- Wordmark and lines, left of the mark, clear of the avatar -->
  <text x="262" y="252" font-family="Poppins, sans-serif" font-weight="700" font-size="104" letter-spacing="30" fill="#FFFFFF">AEGIS</text>
  <text x="266" y="318" font-family="Poppins, sans-serif" font-weight="300" font-size="34" fill="#FFFFFF">Hedge drawdowns. Never get liquidated.</text>
  <text x="266" y="366" font-family="Poppins, sans-serif" font-weight="500" font-size="20" letter-spacing="2.5" fill="#5CF0D6">AUTONOMOUS DELTA HEDGING ON HYPERCORE</text>
</svg>